<svg id="Outline" height="512" viewBox="0 0 512 512" width="512" xmlns="http://www.w3.org/2000/svg"><path d="m493.246 8.489-480 176a8 8 0 0 0 -.6 14.775l205.325 94.764 94.764 205.325a8 8 0 0 0 7.265 4.647c.108 0 .217 0 .326-.007a8 8 0 0 0 7.187-5.239l176-480a8 8 0 0 0 -10.267-10.265zm-174.094 466.584-85.552-185.36 116.154-116.153a8 8 0 0 0 -11.313-11.315l-116.154 116.155-185.36-85.552 445.619-163.394z"/><path d="m189.657 322.343a8 8 0 0 0 -11.314 0l-96 96a8 8 0 0 0 11.314 11.314l96-96a8 8 0 0 0 0-11.314z"/><path d="m125.657 298.343a8 8 0 0 0 -11.314 0l-96 96a8 8 0 0 0 11.314 11.314l96-96a8 8 0 0 0 0-11.314z"/><path d="m202.343 386.343-96 96a8 8 0 0 0 11.314 11.314l96-96a8 8 0 1 0 -11.314-11.314z"/></svg>